<svg width="512" height="512" viewBox="0 0 512 512" fill="none" xmlns="http://www.w3.org/2000/svg">
<path d="M229.607 445.894C187.51 441.345 148.148 422.69 117.836 392.922C99.3927 375.325 84.8322 354.017 75.102 330.381C65.3723 306.746 60.6895 281.313 61.3596 255.736C60.7311 230.318 65.4882 205.057 75.3141 181.637C85.1394 158.216 99.808 137.172 118.342 119.908C148.638 90.4628 187.763 71.9546 229.607 67.2751V3.77557C171.711 8.79692 117.683 35.1553 77.8809 77.8013C54.6237 101.118 36.2412 128.891 23.8193 159.481C11.3973 190.071 5.18754 222.858 5.55719 255.905C4.74418 289.494 10.7379 322.896 23.1733 354.073C35.6082 385.25 54.2231 413.546 77.8809 437.235C118.209 478.835 172.083 504.394 229.607 509.224V445.894Z" fill="#EF626C"/>
<path d="M360.099 255.735C360.257 242.253 357.595 228.888 352.279 216.514C346.962 204.139 339.113 193.032 329.25 183.917C319.696 174.409 308.382 166.89 295.942 161.792C283.502 156.694 270.19 154.115 256.76 154.205C229.055 153.807 202.257 164.139 181.906 183.067C171.666 192.107 163.519 203.299 158.045 215.856C152.565 228.412 149.892 242.025 150.213 255.735C149.662 269.786 152.064 283.795 157.268 296.844C162.467 309.893 170.344 321.69 180.387 331.459C190.61 341.138 202.639 348.674 215.783 353.628C228.92 358.584 242.907 360.859 256.928 360.322C270.561 360.391 284.07 357.729 296.673 352.49C309.271 347.252 320.715 339.543 330.33 329.81C339.945 320.078 347.547 308.517 352.689 295.8C357.826 283.084 360.403 269.464 360.268 255.735H360.099Z" fill="#EF626C"/>
<path d="M433.765 76.4428C393.615 34.4669 339.704 8.58675 282.039 3.6051V66.9347C323.567 72.1385 362.187 91.1377 391.787 120.926C410.101 138.149 424.634 159.041 434.446 182.258C444.258 205.475 449.142 230.504 448.771 255.735C449.097 302.56 432.269 347.862 401.509 382.975C370.744 418.089 328.214 440.55 282.039 446.063V509.223C339.276 503.679 392.67 477.729 432.589 436.046C456.608 412.741 475.603 384.705 488.392 353.683C501.186 322.662 507.499 289.32 506.936 255.735C507.471 222.412 501.259 189.328 488.679 158.503C476.098 127.677 457.413 99.7562 433.765 76.4428Z" fill="#EF626C"/>
</svg>
